<?xml version="1.0" encoding="UTF-8" standalone="no"?>
<svg
   xmlns:dc="http://purl.org/dc/elements/1.1/"
   xmlns:cc="http://creativecommons.org/ns#"
   xmlns:rdf="http://www.w3.org/1999/02/22-rdf-syntax-ns#"
   xmlns:svg="http://www.w3.org/2000/svg"
   xmlns="http://www.w3.org/2000/svg"
   xmlns:sodipodi="http://sodipodi.sourceforge.net/DTD/sodipodi-0.dtd"
   xmlns:inkscape="http://www.inkscape.org/namespaces/inkscape"
   inkscape:version="1.0 (4035a4fb49, 2020-05-01)"
   height="1348.1594"
   width="1940.163"
   sodipodi:docname="404.svg"
   version="1.1"
   viewBox="0 0 1940.163 1348.1594"
   data-name="Layer 1"
   id="Layer_1">
  <metadata
     id="metadata101">
    <rdf:RDF>
      <cc:Work
         rdf:about="">
        <dc:format>image/svg+xml</dc:format>
        <dc:type
           rdf:resource="http://purl.org/dc/dcmitype/StillImage" />
        <dc:title>Artboard 1 copy</dc:title>
      </cc:Work>
    </rdf:RDF>
  </metadata>
  <sodipodi:namedview
     inkscape:current-layer="Layer_1"
     inkscape:window-maximized="1"
     inkscape:window-y="27"
     inkscape:window-x="0"
     inkscape:cy="21.810045"
     inkscape:cx="568.04941"
     inkscape:zoom="0.44611111"
     fit-margin-bottom="0.5"
     fit-margin-right="0.5"
     fit-margin-left="0.5"
     fit-margin-top="0.5"
     lock-margins="true"
     showgrid="false"
     id="namedview99"
     inkscape:window-height="1025"
     inkscape:window-width="1920"
     inkscape:pageshadow="2"
     inkscape:pageopacity="0"
     guidetolerance="10"
     gridtolerance="10"
     objecttolerance="10"
     borderopacity="1"
     bordercolor="#666666"
     pagecolor="#ffffff" />
  <defs
     id="defs4">
    <style
       id="style2">.cls-1{fill:#d6b49a;}.cls-1,.cls-10,.cls-11,.cls-13,.cls-14,.cls-15,.cls-17,.cls-2,.cls-4,.cls-5,.cls-6{stroke:#000;}.cls-1,.cls-11,.cls-13,.cls-14,.cls-16,.cls-8{stroke-linecap:round;stroke-linejoin:round;}.cls-1,.cls-10,.cls-11,.cls-12,.cls-13,.cls-14,.cls-15,.cls-16,.cls-17,.cls-2,.cls-3,.cls-4,.cls-5,.cls-6,.cls-7,.cls-8,.cls-9{stroke-width:3px;}.cls-2{fill:#020202;}.cls-10,.cls-12,.cls-15,.cls-17,.cls-2,.cls-3,.cls-4,.cls-5,.cls-6,.cls-7,.cls-9{stroke-miterlimit:10;}.cls-3{fill:#818181;}.cls-12,.cls-16,.cls-3,.cls-7,.cls-8,.cls-9{stroke:#191818;}.cls-4{fill:#dcdbda;}.cls-5{fill:#4ea7f1;}.cls-14,.cls-6{fill:#f8f3ed;}.cls-16,.cls-7{fill:#333;}.cls-13,.cls-8{fill:none;}.cls-9{fill:#f8f59c;}.cls-10,.cls-11{fill:#f3d2c9;}.cls-15{fill:#8bb174;}.cls-17{fill:#da4e22;}</style>
  </defs>
  <title
     id="title6">Artboard 1 copy</title>
  <path
     id="path8"
     d="m 916.21235,820.07345 c -43.75,-72.44 -119.63,-96.48 -144.56,-103.2 v 0 a 121.1,121.1 0 0 1 -6,-58.67 c 5.65,-38.81 14.87,-101.89 15.77,-106.5 l -188.51,73.33 -191.73,64.42 c 3.64,3 51.12,45.51 80.31,71.69 a 121.07,121.07 0 0 1 33,48.89 v 0 c -14.84,21.13 -57.72,88.19 -44.92,171.84 12.09,79.00005 67.16,129.00005 103.83,162.39005 a 396.42,396.42 0 0 0 88,60.44 121.54,121.54 0 0 0 98.43,19.6 c 5.76,-1.34 16.84,-4.18 27.22,-7.38 4.58,-1.42 10.4,-3.23 17.06,-5.57 v 0 l 1.1,-0.41 1.1,-0.39 v 0 c 6.61,-2.47 12.24,-4.8 16.67,-6.65 10,-4.19 20.35,-9.11 25.63,-11.77 a 121.54,121.54 0 0 0 63,-78.09 396.28,396.28 0 0 0 28.85,-102.77 c 6.82,-49.07005 17.06,-122.78005 -24.25,-191.20005 z"
     class="cls-1" />
  <ellipse
     id="ellipse10"
     transform="rotate(-19.91)"
     ry="30.98"
     rx="202.22"
     cy="784.31036"
     cx="344.59305"
     class="cls-2" />
  <path
     id="path12"
     d="m 801.91235,1250.1435 -0.09,82.82 c 0,6.19 6.66,11.22 14.88,11.23 h 0.3 c 8.22,0 14.9,-5 14.9,-11.2 l 0.09,-81.9 c 0,-0.53 -6.95,-1 -15.39,-1 h -14.69"
     class="cls-3" />
  <path
     id="path14"
     d="m 1591.9124,1250.1435 -0.09,82.82 c 0,6.19 6.66,11.22 14.88,11.23 h 0.3 c 8.22,0 14.9,-5 14.9,-11.2 l 0.09,-81.9 c 0,-0.53 -7,-1 -15.39,-1 h -14.69"
     class="cls-3" />
  <path
     id="path16"
     d="M 1668.4124,1229.6435 H 598.16235 a 10.75,10.75 0 0 0 -10.75,10.75 v 0 a 10.75,10.75 0 0 0 10.75,10.75 H 1657.9124 a 10.75,10.75 0 0 0 10.74,-11 l -0.24,-10.5"
     class="cls-4" />
  <path
     id="path18"
     d="m 544.65235,670.64345 c 0,0 -38.62,147.5 -32.18,209.29 3.84,36.88 2.64,98 1,141.40005 a 52.4,52.4 0 0 1 -104.76,-1.3 c -0.27,-22.00005 -2.78,-38.74005 -0.5,-51.20005 13.67,-74.81 -7.27,-76 5.08,-144.26 q 3.17,-11.08 6.56,-22.29 c 11.82,-39 24.77,-75.25 38.5,-110.61 14.74,-1.39 31.2,-5.77 48.93,-9.73 13.63,-3.04 26.1,-7.58 37.37,-11.3 z"
     class="cls-5" />
  <path
     id="path20"
     d="m 562.68235,985.51345 c -8.92,0 -15.45,-12.93 -18,-18 -17.59,-34.83 9,-95.59 19.32,-117.16 9.86,22.2 34.32,82.46 16.74,117.16 -2.66,5.15 -9.17,18 -18.06,18 z"
     class="cls-5" />
  <path
     id="path22"
     d="m 1758.6924,830.14345 c -110.75,-95.83 -248,-74.53 -267.79,-71.13 -190.52,30.41 -344.62,100 -368.21,188.29 a 549.59,549.59 0 0 0 -11.7,55.33005 c -47.15,-8.00005 -126.29005,-11.92005 -172.38005,38.22 l -0.23,0.26 c -13.09,14.32 -3.91,37.46 15.39,39.47 11.56,1.2 25.45,2.36 41.11,3.12 32.51005,1.58 102.09005,52 145.66005,85.51 a 156.16,156.16 0 0 0 106.71,52.93 h 0.66 c 12.09,8.11 44,27.11 88.17,26.43 a 153,153 0 0 0 66.95,-16.73 l 160.38,-2.2 c 74.24,21.55 133.85,19.3 170.18,14.75 52.21,-6.53 71.81,-19.57 80.58,-26.78 30.3,-25 41.33,-63.94 49.13,-102.93 16.02,-80.11 -9.78,-202.48005 -104.61,-284.54005 z"
     class="cls-6" />
  <path
     id="path24"
     d="m 1109.9124,1001.1435 c -9.38,-27.55005 -23.66,-79.78005 -24.88,-129.15005 a 393.76,393.76 0 0 1 12.55,-108.79 334.61,334.61 0 0 1 -32.62,-173.74 17.07,17.07 0 0 1 26,-13 l 132.1,82.11 a 320.21,320.21 0 0 1 150.63,-4.18 l 119.81,-98 a 13.73,13.73 0 0 1 22.29,8.61 456.39,456.39 0 0 1 -16.57,202.39 188.88,188.88 0 0 1 7.14,87.26"
     class="cls-6" />
  <path
     id="path26"
     d="m 426.20235,1178.6435 h -0.29 c 0,0 -8.5,-0.11 -16.44,-7.73 -6.25,-6 -0.85,-32.43 18,-63.08 16.1,31.14 20.08,57.13 14.16,63.08 -7.6,7.69 -15.43,7.73 -15.43,7.73 z"
     class="cls-5" />
  <path
     id="path28"
     d="m 1867.4124,1063.6435 c 14.81,6.82 38.24,20.41 54,46 36.42,59.15 9.28,145.76 -41.37,191.33 -36.76,33.08 -79.09,38.28 -112.39,42.57 -19.52,2.51 -110,13.78 -172.14,-42.57 -12.57,-11.4 -42,-38.11 -37.66,-71.13 2.25,-17 13.79,-39.69 33.47,-46 37.71,-12.14 60.28,50.17 131.09,57.83 10.2,1.1 53.88,4.58 88,-23 5.59,-4.52 14.81,-13 26,-32 11.5,-19.53 30.93,-60.01 31,-123.03 z"
     class="cls-7" />
  <path
     id="path30"
     d="m 1403.4124,1231.6435 c 0,0 69,-32 85,-94"
     class="cls-8" />
  <path
     id="path32"
     d="m 1373.7424,654.41345 119.81,-98 a 13.73,13.73 0 0 1 22.29,8.61 c 3.24,22.58 4.13,45.46 4.35,81 0.22,35.54 -12.28,68.12 -20.78,121.62 a 284.8,284.8 0 0 0 -125.67,-113.23 z"
     class="cls-7" />
  <path
     id="path34"
     d="m 1251.4124,1223.6435 c -1.77,-1.54 -8.83,-8 -9,-17.67 -0.11,-7.92 4.52,-13.56 6,-15.33 12.18,-14.84 33.82,-8.35 59,-15 11.91,-3.15 28.36,-10.22 46,-28"
     class="cls-8" />
  <ellipse
     id="ellipse36"
     ry="117"
     rx="153"
     cy="801.64343"
     cx="1295.4124"
     class="cls-7" />
  <circle
     id="circle38"
     r="31.5"
     cy="794.14343"
     cx="1197.9124"
     class="cls-9" />
  <path
     id="path40"
     d="m 1515.4124,565.64345 c 0,0 -70,95 -77,117 -5.24,16.45 18.62,8.3 31,3.14 a 2.87,2.87 0 0 1 3.69,3.88 l -8.3,17.53 a 6.35,6.35 0 0 0 7.75,8.74 l 9.91,-3.3 a 2.87,2.87 0 0 1 3.56,3.83 l -3.59,17.18 17,34 a 457.51,457.51 0 0 0 16,-202 z"
     class="cls-10" />
  <path
     id="path42"
     d="m 1222.4124,658.64345 c -43.86,-27.19 -89.35,-56.1 -133.21,-83.29 -9.07,-5.62 -23.66,1.62 -23.79,12.29 -0.27,22.81 -4,48.1 3,83 3.77,18.84 5.45,28.58 9.26,41.5 a 315.06,315.06 0 0 0 19.74,50.5 199,199 0 0 1 18,-29 c 5.75,-7.71 26.56,-34.42 64,-56 a 221.93,221.93 0 0 1 43,-19 z"
     class="cls-7" />
  <path
     id="path44"
     d="m 1065.4124,585.64345 c 0,0 75.38,65.94 84.71,83.21 0.55,1 2.89,5.62 1.16,7.71 -3.3,4 -17.41,-6.08 -23.87,-0.92 a 6.77,6.77 0 0 0 -1.62,1.92 8,8 0 0 0 0.75,8.68 c 2.16,2.87 5,7.47 4.73,11.84 a 6.33,6.33 0 0 1 -1.15,3.63 c -1.93,2.36 -5.52,2.38 -6.51,2.38 -6.55,0 -10.09,-6.31 -10.25,-6.6 a 4.65,4.65 0 0 0 -6,0.13 3.51,3.51 0 0 0 -0.94,2 8.85,8.85 0 0 0 0.82,5.06 c 2.17,4.39 -0.37,18.55 -1.85,24.93 a 93.65,93.65 0 0 1 -11,27 c -9,-19.66 -21.15,-51 -27,-89 a 326.82,326.82 0 0 1 -3.49,-62.74 c 0.38,-7.83 1.01,-14.43 1.51,-19.23 z"
     class="cls-11" />
  <circle
     id="circle46"
     r="22.5"
     cy="794.14343"
     cx="1197.9124"
     class="cls-12" />
  <circle
     id="circle48"
     r="31.5"
     cy="794.14343"
     cx="1399.9124"
     class="cls-9" />
  <circle
     id="circle50"
     r="22.5"
     cy="794.14343"
     cx="1399.9124"
     class="cls-12" />
  <path
     id="path52"
     d="m 1288.1724,800.27345 10.24,1.37 9.39,-1.34 a 2.14,2.14 0 0 1 2.11,3.27 l -9.09,14.28 a 3,3 0 0 1 -4.94,0.08 l -9.77,-14.33 a 2.15,2.15 0 0 1 2.06,-3.33 z"
     class="cls-10" />
  <path
     id="path54"
     d="m 1297.6524,819.22345 c 0,0 2.76,17.42 -17.24,15.42"
     class="cls-13" />
  <path
     id="path56"
     d="m 1298.5424,820.22345 c 0,0 -2.76,17.42 17.24,15.42"
     class="cls-13" />
  <path
     id="path58"
     d="m 1507.4124,804.64345 70.5,-21.5"
     class="cls-14" />
  <path
     id="path60"
     d="m 1509.9124,820.14345 66.5,10.5"
     class="cls-14" />
  <path
     id="path62"
     d="m 1086.9124,820.14345 -60.5,13.5"
     class="cls-14" />
  <path
     id="path64"
     d="m 1089.4124,803.64345 -66.5,-10.5"
     class="cls-14" />
  <path
     id="path66"
     d="m 340.70235,207.14345 c 44.57,20.37 95.3,66.11 155.71,124.48 92.79,89.66 150.8,234.43 169,289 -5.77,2.68 -30.23,-42.68 -36,-40 -19.27,-52.74 -57.27,-138.85 -139,-223 -66.8,-68.78 -125,-119.67 -172,-142 z"
     class="cls-15" />
  <path
     id="path68"
     d="m 588.46235,653.30345 c -74.68,-63 -179.26,-139.49 -214.14,-152.89 -89.78,-34.5 -169.48,-49.55 -221.09,-50.06 q 8.32,-8.54 16.67,-17.06 c 49,-0.22 119.61,13.39 199,41 31.84,11.09 153.72,90.48 241,170.65 z"
     class="cls-15" />
  <path
     id="path70"
     d="m 666.45235,622.44345 c -17.76,-23.9 -59.56,-97.14 -83.92,-120.77 a 597.13,597.13 0 0 0 -166.5,-113.78 l -22.31,8.44 a 635.18,635.18 0 0 1 182.77,131.33 c 17.7,18.29 54.44,85.77 68.42,104 z"
     class="cls-15" />
  <path
     id="path72"
     d="m 1322.4124,1170.6435 34,76 a 192.85,192.85 0 0 1 -51,-1 c 0,0 -29.19,-3.39 -48.59,-18 -13.48,-10.12 -14.12,-17.25 -14.29,-19.38 -0.78,-9.74 5.64,-16.63 8.13,-19 l 0.75,-0.68 c 9,-7.86 25,-8.93 26,-9 10.24,-0.63 24.39,-3.28 45,-8.94 z"
     class="cls-7" />
  <path
     id="path74"
     d="m 1016.1924,1088.3735 30.22,-89.73005 a 156.61,156.61 0 0 0 -60.00005,11.00005 149.83,149.83 0 0 0 -38,23 c -1,0.85 -15,12.88 -15.5,24.47 0,0.63 0,1.22 0,1.26 0.23,9.77 7.33,16 10.06,18 l 0.82,0.6 c 8.37,5.92 18.58,5.26 33.63,5.63 8.49,0.21 12.73,0.32 18,1 a 113.17,113.17 0 0 1 20.77005,4.77 z"
     class="cls-16" />
  <path
     id="path76"
     d="m 135.21235,147.63345 -28.05,-15.3 A 40.34,40.34 0 0 1 86.362352,92.693452 l 2.35,-22.21 a 61.8,61.8 0 0 1 26.569998,-44.52 v 0 a 29.52,29.52 0 0 1 29.48,-2.22 82.16,82.16 0 0 0 8.28,3.32 234.66,234.66 0 0 1 86.78,54.37 l -43.47,78.829998 z"
     class="cls-17" />
  <path
     id="path78"
     d="m 161.64235,121.14345 -0.69,0.05 a 40.94,40.94 0 0 0 -37,32 l -2.68,12.12 a 53.57,53.57 0 0 0 33.25,61.63 l 82.49,31.4 12.7,-90.2 -57,-38.69 a 48.91,48.91 0 0 0 -31.07,-8.31 z"
     class="cls-17" />
  <path
     id="path80"
     d="m 307.91235,65.963452 -32.13,-42.59 a 53.66,53.66 0 0 0 -53.87,-20.2300004 l -10.53,2.21 a 31.57,31.57 0 0 0 -19.58,48.7900004 l 27,38.3 84.61,30.609998 z"
     class="cls-17" />
  <circle
     id="circle82"
     r="65.129997"
     cy="138.32344"
     cx="238.38235"
     class="cls-9" />
  <path
     id="path84"
     d="m 253.26235,65.943452 -3.18,24.43 c -1.27,9.709998 1.05,18.919998 6.5,25.819998 l 43.66,55.28 25.6,66.79 a 188.3,188.3 0 0 0 13.53,-28.27 c 0,0 9.66,-27.18 8.55,-57.61 -2,-56.479998 -41.85,-101.409998 -48.51,-108.739998 a 21.18,21.18 0 0 0 -11,-7 c -8.32,-2 -15.23,2.41 -18.82,4.69 -11.98,7.61 -15.44,20.66 -16.33,24.61 z"
     class="cls-17" />
  <path
     id="path86"
     d="m 235.91235,258.47345 -49.4,-22.83 a 42.53,42.53 0 0 1 -21,-55.8 l 10.27,-23.18 a 56,56 0 0 1 70.16,-30 l 59.18,21.35 a 54.61,54.61 0 0 1 35.48,59.13 v 0 a 72.53,72.53 0 0 1 -17.51,34.08 c -22.74,24.35 -55.11,23 -60.87,22.72 a 83.93,83.93 0 0 1 -26.31,-5.47 z"
     class="cls-17" />
  <path
     id="path88"
     d="m 63.392352,341.59345 -4.1,-14.15 a 39.86,39.86 0 0 1 20.26,-46.64 v 0 a 44.74,44.74 0 0 1 46.869998,4 c 12.59,4.22 69.55,24.82 98.81,84.49 a 161.75,161.75 0 0 1 16.25,66.83 8.26,8.26 0 0 1 -12.57,7.19 z"
     class="cls-17" />
  <path
     id="path90"
     d="m 16.792352,480.39345 17.12,12.75 a 87.06,87.06 0 0 0 16.42,9.6 175.79,175.79 0 0 0 21.43,7.83 c 15.81,4.64 54.809998,16.06 98.179998,0.1 33.26,-12.24 53.93,-35 64.71,-49.86 a 7,7 0 0 0 -4.9,-11.16 l -188.299998,-21.35 a 32.86,32.86 0 0 0 -32.9999998,17.77 27.41,27.41 0 0 0 8.3399998,34.32 z"
     class="cls-17" />
  <path
     id="path92"
     d="m 3.0523522,379.14345 v 0 a 63.93,63.93 0 0 0 32.9199998,42 l 57.42,29.55 c 3.85,1.51 9.479998,3.61 16.369998,5.82 a 265.52,265.52 0 0 0 45,10.4 c 27.27,3.24 57.36,-5.36 74.44,-11.41 a 13.29,13.29 0 0 0 8.07,-17 c -10.22,-28.29 -25.28,-44.58 -33.77,-52.46 -15.68,-14.55 -34.71,-24.26 -49.92,-32 a 314.15,314.15 0 0 0 -29.59,-13.23 l -48.899998,-13.51 a 63.9,63.9 0 0 0 -48.09,5.84 l -4.91,2.74 a 39.23,39.23 0 0 0 -19.0399998,43.26 z"
     class="cls-17" />
  <path
     id="path94"
     d="m 368.70235,301.02345 a 10.12,10.12 0 0 0 -10.16,11.81 c 4,23.68 14.18,75.92 28.34,89.12 18.47,17.22 48.15,116.37 130.7,95.46 56.68,-14.36 39.26,-73.52 22.76,-109.22 a 117,117 0 0 0 -41.89,-48.75 228.19,228.19 0 0 0 -58.54,-27.3 260,260 0 0 0 -71.21,-11.12 z"
     class="cls-17" />
  <path
     id="path96"
     d="m 700.54235,608.14345 c 2.87,-1.5 -27.13,-292.5 -111.13,-404.5 -84,-111.999998 -104,-129.999998 -104,-129.999998 0,0 -2,84.999998 34,144.999998 36,60 78,160 90,182 12,22 56,223 56,223 z"
     class="cls-15" />
</svg>
