<?xml version="1.0" encoding="UTF-8" standalone="no"?>
<svg
   xmlns:dc="http://purl.org/dc/elements/1.1/"
   xmlns:cc="http://creativecommons.org/ns#"
   xmlns:rdf="http://www.w3.org/1999/02/22-rdf-syntax-ns#"
   xmlns:svg="http://www.w3.org/2000/svg"
   xmlns="http://www.w3.org/2000/svg"
   xmlns:sodipodi="http://sodipodi.sourceforge.net/DTD/sodipodi-0.dtd"
   xmlns:inkscape="http://www.inkscape.org/namespaces/inkscape"
   inkscape:version="1.0 (4035a4fb49, 2020-05-01)"
   height="593.5"
   width="529.20001"
   sodipodi:docname="day90-santa.svg"
   xml:space="preserve"
   viewBox="0 0 529.20001 593.5"
   y="0px"
   x="0px"
   id="Layer_1"
   version="1.1"><metadata
   id="metadata335"><rdf:RDF><cc:Work
       rdf:about=""><dc:format>image/svg+xml</dc:format><dc:type
         rdf:resource="http://purl.org/dc/dcmitype/StillImage" /><dc:title></dc:title></cc:Work></rdf:RDF></metadata><defs
   id="defs333" /><sodipodi:namedview
   inkscape:current-layer="Layer_1"
   inkscape:window-maximized="1"
   inkscape:window-y="27"
   inkscape:window-x="0"
   inkscape:cy="298.10001"
   inkscape:cx="254.30002"
   inkscape:zoom="0.803"
   fit-margin-bottom="0"
   fit-margin-right="0"
   fit-margin-left="0"
   fit-margin-top="0"
   inkscape:pagecheckerboard="false"
   showgrid="false"
   id="namedview331"
   inkscape:window-height="1025"
   inkscape:window-width="1920"
   inkscape:pageshadow="2"
   inkscape:pageopacity="0"
   guidetolerance="10"
   gridtolerance="10"
   objecttolerance="10"
   borderopacity="1"
   bordercolor="#666666"
   pagecolor="#ffffff" />
<style
   id="style2"
   type="text/css">
	.st0{fill:#FFFFFF;}
	.st1{fill:#9D9FFF;}
	.st2{fill:none;stroke:#000000;stroke-width:12;stroke-linecap:round;stroke-linejoin:round;stroke-miterlimit:10;}
	.st3{filter:url(#Adobe_OpacityMaskFilter);}
	.st4{mask:url(#XMLID_2_);}
	.st5{fill:#EF2020;}
	.st6{fill:#AF1B1B;}
	.st7{fill:#EA7E4E;}
	.st8{fill:#D36B42;}
	.st9{fill:#BFBFBF;}
	.st10{fill:#333333;}
	.st11{fill:#F2973D;}
	.st12{fill:#C67226;}
	.st13{fill:none;stroke:#BFBFBF;stroke-width:12;stroke-miterlimit:10;}
	.st14{fill:none;stroke:#000000;stroke-width:6;stroke-linecap:round;stroke-linejoin:round;stroke-miterlimit:10;}
	.st15{filter:url(#Adobe_OpacityMaskFilter_1_);}
	.st16{mask:url(#XMLID_3_);}
</style>


<g
   transform="translate(-245.69998,-201.89999)"
   id="XMLID_243_">
	<circle
   r="258.60001"
   cy="509.29999"
   cx="510.29999"
   class="st1"
   id="XMLID_178_" />
	<circle
   r="258.60001"
   cy="509.29999"
   cx="510.29999"
   class="st2"
   id="XMLID_173_" />
	<defs
   id="defs214">
		<filter
   height="593.5"
   width="506.60001"
   y="201.89999"
   x="249.7"
   filterUnits="userSpaceOnUse"
   id="Adobe_OpacityMaskFilter">
			<feColorMatrix
   id="feColorMatrix211"
   values="1 0 0 0 0  0 1 0 0 0  0 0 1 0 0  0 0 0 1 0"
   type="matrix" />
		</filter>
	</defs>
	<mask
   id="XMLID_2_"
   height="593.5"
   width="506.6"
   y="201.9"
   x="249.7"
   maskUnits="userSpaceOnUse">
		<g
   class="st3"
   id="XMLID_177_">
			<path
   d="m 768.9,509.3 c 0,142.8 -115.8,258.6 -258.6,258.6 -142.8,0 -258.6,-115.8 -258.6,-258.6 0,-142.8 169.3,-333 312.1,-333 142.8,0 205.1,190.2 205.1,333 z"
   class="st0"
   id="XMLID_174_" />
		</g>
	</mask>
	<g
   mask="url(#XMLID_2_)"
   class="st4"
   id="XMLID_176_">
		<g
   id="XMLID_172_">
			<ellipse
   ry="196.39999"
   rx="184.39999"
   cy="593"
   cx="506.10001"
   class="st5"
   id="XMLID_206_" />
			<path
   d="m 597.3,422.3 c 40.9,36 66.9,90.4 66.9,151.4 0,108.4 -82.6,196.4 -184.4,196.4 -33.2,0 -64.3,-9.3 -91.2,-25.7 31.9,28.1 72.8,45 117.5,45 101.8,0 184.4,-87.9 184.4,-196.4 0,-73.1 -37.5,-136.9 -93.2,-170.7 z"
   class="st6"
   id="XMLID_205_" />
			<path
   d="m 655.5,498 c -0.4,-5.7 -1.3,-11.4 -2.6,-17 -32.2,-48 -83.7,-79 -141.7,-79 -59.8,0 -112.6,33 -144.5,83.4 -0.8,4.1 -1.3,8.3 -1.7,12.5 -1.8,24.1 4.6,45.6 18,60.4 19.9,22.8 43,39.3 63.3,53.9 20.7,14.8 40.3,28.8 52.5,46.6 l 11.4,16.6 11.4,-16.6 c 12.2,-17.8 31.8,-31.8 52.5,-46.6 20.4,-14.6 43.4,-31.1 63.3,-53.9 13.5,-14.9 19.9,-36.3 18.1,-60.3 z"
   class="st6"
   id="XMLID_204_" />
			<ellipse
   ry="196.39999"
   rx="184.39999"
   cy="593"
   cx="506.10001"
   class="st2"
   id="XMLID_203_" />
			<path
   d="m 421.1,307.5 c 0,-21.5 32.2,-100.7 119.5,-99.6 61,0.8 100.1,51.9 103.5,73.6 -37,-8.3 -47.3,27.7 -47.3,27.7 0,0 -86.2,-19.6 -175.7,-1.7 z"
   class="st5"
   id="XMLID_202_" />
			<path
   d="m 510.2,300.1 c 50.1,0.9 86.6,9.2 86.6,9.2 0,0 10.3,-36 47.3,-27.7 -0.5,-3.2 -1.8,-7 -3.8,-11.3 -12,-5 -25.6,-8.2 -40.4,-8.3 -41.6,-0.6 -70.6,17.1 -89.7,38.1 z"
   class="st6"
   id="XMLID_201_" />
			<path
   d="m 421.1,307.5 c 0,-21.5 32.2,-100.7 119.5,-99.6 61,0.8 100.1,51.9 103.5,73.6 -37,-8.3 -47.3,27.7 -47.3,27.7 0,0 -86.2,-19.6 -175.7,-1.7 z"
   class="st2"
   id="XMLID_200_" />
			<circle
   r="23.5"
   cy="363.29999"
   cx="596.79999"
   class="st7"
   id="XMLID_199_" />
			<circle
   r="23.5"
   cy="363.29999"
   cx="596.79999"
   class="st8"
   id="XMLID_198_" />
			<circle
   r="23.5"
   cy="363.29999"
   cx="596.79999"
   class="st2"
   id="XMLID_197_" />
			<circle
   r="23.5"
   cy="363.29999"
   cx="413.39999"
   class="st7"
   id="XMLID_196_" />
			<circle
   r="23.5"
   cy="363.29999"
   cx="413.39999"
   class="st2"
   id="XMLID_195_" />
			<g
   id="XMLID_191_">
				<path
   d="m 591.9,362.2 c 0,64.6 -34,124.3 -86.8,124.3 -52.8,0 -86.8,-59.7 -86.8,-124.3 0,-64.6 34,-71.9 86.8,-71.9 52.8,0 86.8,7.3 86.8,71.9 z"
   class="st7"
   id="XMLID_194_" />
				<path
   d="m 505.1,290.2 c -44.6,0 -75.8,5.2 -84.4,45.8 1.1,-0.1 2.3,-0.3 3.5,-0.6 0.5,0 0.9,0.1 1.4,0.1 0.7,0 1.4,-0.1 2.1,-0.2 0.2,0 0.4,0 0.6,0 0.6,0 1.2,0 1.8,0 h 0.3 c 1,0.2 2.4,0.4 4.1,0.4 3,0 5.8,-0.8 8.3,-2.3 v 0 c 0.7,0 1.7,-0.1 2.8,-0.2 l 5.9,-0.6 0.2,-0.2 c 1.3,-0.1 2.5,-0.3 3.7,-0.8 0.7,0.1 1.4,0.2 2.2,0.2 v 0 c 2.2,0 4.3,-0.5 6.3,-1.5 0.5,0.1 1,0.1 1.6,0.2 l 5.8,0.3 0.8,-0.9 1.7,-0.1 c 1.8,-0.1 3.2,-0.3 4.4,-0.6 l 0.6,0.2 2.6,-0.2 c 1.2,-0.1 2.4,-0.1 3.5,-0.2 l 1.6,-0.1 c 0.3,0 0.6,0 1,0 0.8,0 1.6,-0.1 2.4,-0.2 l 2.6,-0.1 v 0 c 0.6,0.1 1.2,0.1 1.9,0.1 0.9,0 1.9,-0.1 2.7,-0.2 l 1.5,-0.2 c 1,0.1 2.3,0.3 3.8,0.3 h 5.1 c 0.5,0.1 1.1,0.1 1.6,0.1 1.2,0 2.4,-0.2 3.6,-0.4 l 0.3,-0.1 c 1.8,0.6 3.7,0.9 5.7,0.9 1,0 1.9,-0.1 2.5,-0.1 1,0 2.1,0.1 3.1,0.1 l 2.2,0.1 1.2,-0.4 0.9,0.7 4.1,0.1 c 2.5,0.1 4.4,0.2 6,0.5 2.4,0.5 4.5,0.6 6.3,0.7 0.9,0.1 1.7,0.1 2.4,0.2 h 0.2 c 0.5,0.1 0.9,0.1 1.4,0.1 l 9.9,5.2 1.6,-3.6 0.5,0.1 3.3,3.8 4.2,-2.1 c 1,0.2 2,0.4 3.2,0.4 0.3,0 0.5,0 0.8,0 0.4,0.2 -1.4,-0.9 -0.8,0 3.8,5.3 6.5,11.5 6.7,18.1 0.4,12.3 -4.2,21.1 -9,23.9 -5.6,3.2 -20.3,3.1 -29.1,1.7 14.1,13.2 40.4,18.2 45.3,14.8 8,-5.5 6.5,-25.4 5.4,-44.9 -8.6,-39.7 -41.6,-58.3 -85.9,-58.3 z"
   class="st8"
   id="XMLID_193_" />
				<path
   d="m 591.9,362.2 c 0,64.6 -34,124.3 -86.8,124.3 -52.8,0 -86.8,-59.7 -86.8,-124.3 0,-64.6 34,-71.9 86.8,-71.9 52.8,0 86.8,7.3 86.8,71.9 z"
   class="st2"
   id="XMLID_192_" />
			</g>
			<g
   id="XMLID_185_">
				<path
   d="m 572.9,322 c -44.8,-7.8 -90.9,-7.8 -135.7,0 -12.2,2.1 -26.9,0.4 -30.4,-10 -0.6,-2 17.5,-15 30,-19.7 45,-16.8 91.4,-16.8 136.5,0 12.5,4.7 30.7,17.7 30,19.7 -3.5,10.3 -18.2,12.1 -30.4,10 z"
   class="st0"
   id="XMLID_188_" />
				<path
   d="m 586.9,299.9 c -3.6,-2.5 -8.6,-0.3 -9.2,4.1 -0.3,2.3 -1.1,4.1 -4.8,3.4 -44.8,-7.8 -99.3,-10.4 -147.4,3.9 -7.7,2.3 -5.3,-2.8 -11.6,-6.1 -4.4,3.2 -7.4,6 -7.1,6.8 3.5,10.3 18.2,12.1 30.4,10 44.8,-7.8 90.9,-7.8 135.7,0 12.2,2.1 26.9,0.4 30.4,-10 0.2,-0.6 -9.6,-7.4 -16.4,-12.1 z"
   class="st9"
   id="XMLID_187_" />
				<path
   d="m 572.9,322 c -1.8,1.3 -3.5,-1.8 -5.3,-0.9 -1.8,-2 -3.5,-2.4 -5.3,-0.8 -1.8,-0.3 -3.5,-2 -5.3,-0.7 -1.3,0.1 -2.7,-3.5 -4,-0.5 -1.3,-0.7 -2.7,-0.3 -4,-0.5 -2.7,-0.3 -5.3,-0.3 -8,-0.8 -2.7,-0.4 -5.3,-0.6 -8,-0.7 -2.7,-2 -5.3,-1.3 -8,-0.5 -1.3,-0.1 -2.7,-0.1 -4,-0.2 -1.3,0.1 -2.7,0.4 -4,-0.1 -2.4,-2 -4.9,-2.6 -7.3,-0.2 -2.4,0.6 -4.9,-3.5 -7.3,0 -2.4,0 -4.9,-0.9 -7.3,0.1 -2.4,0.4 -4.9,-1.3 -7.3,0.2 -1.2,0.7 -2.4,-2.5 -3.6,0.2 -1.2,0.1 -2.4,0.1 -3.6,0.2 -2.4,-0.9 -4.9,0.4 -7.3,0.5 -2.4,-1.9 -4.8,-1.9 -7.3,0.7 -2.4,-0.1 -4.8,-3.7 -7.2,0.8 -2.4,2.1 -4.8,-3.6 -7.2,0.9 -2.4,1.1 -4.8,-2.5 -7.2,1.1 -2.4,0.2 -4.8,-0.1 -7.2,1.2 -2.4,2.5 -5,0.2 -7.5,0.8 -1.3,0 -2.5,0 -3.8,0 -1.2,1.5 -2.5,-5 -3.7,-0.4 -2.4,2.2 -4.7,1.3 -6.7,-1.8 -2.1,0.2 -3.9,-0.2 -5.4,-3.4 -1.5,0.3 -2.6,-3.2 -3.3,-5.2 -0.1,-1.1 0.5,-0.8 1.7,-2.4 1.2,-2 2.9,-2.6 5,-4.1 2.1,-4 4.6,-4.8 7.2,-4.9 1.3,-1.8 2.7,-1.6 4,-2.4 1.4,-0.8 2.8,-1.6 4.1,-2.3 2.8,-3.7 5.5,-2.2 8,-3.6 2.5,1 5,2.9 7.5,-2.6 2.5,0.4 5,-5.1 7.5,-2.3 2.5,3.3 5,-3.3 7.6,-2 2.5,0.4 5,-5.2 7.6,-1.7 2.5,3.9 5.1,-2.4 7.6,-1.4 2.5,-5.8 5.1,-1 7.6,-1.1 2.5,3.4 5.1,-5.2 7.6,-0.8 2.5,-3.2 5.1,-2 7.6,-0.5 2.5,2.9 5.1,-2.7 7.6,-0.2 2.5,3.7 5.1,1.2 7.6,0.2 2.5,-1.9 5.1,-0.9 7.6,0.5 2.5,-1.7 5.1,4 7.6,0.8 2.5,0.7 5.1,-0.8 7.6,1.1 2.5,1.8 5.1,0.8 7.6,1.4 2.5,1.4 5.1,3 7.6,1.7 2.5,-1.3 5,1.1 7.6,2 2.5,-0.4 5,5.9 7.5,2.3 2.5,-2.6 5,1.5 7.5,2.6 2.5,-1.8 5.2,1.8 8,3.6 2.8,5.2 5.5,4 8.2,4.7 2.6,2 5.1,6.2 7.2,4.9 2.1,1.5 3.8,3 5,4.1 1.2,1.1 1.8,2 1.7,2.4 -0.7,2.1 -1.9,3.8 -3.3,5.2 -1.5,1.4 -3.3,2.5 -5.4,3.4 -2.1,-0.6 -4.3,2.3 -6.7,1.8 -2.4,-0.8 -4.9,4.1 -7.5,0.4 -2.5,3 -5,-3.1 -7.5,-0.8 z"
   class="st2"
   id="XMLID_186_" />
			</g>
			<path
   d="m 684.5,296 c 0,-0.4 -0.1,4.5 -0.3,4.2 -0.2,-0.2 -0.5,2.5 -0.9,3 -0.4,-4.8 -0.8,4.1 -1.4,2.5 -0.5,1.9 -1.2,5.8 -1.9,3.8 -0.7,1 -1.5,-0.2 -2.3,2.5 -0.8,0.2 -1.7,3.6 -2.7,2.4 -0.9,-2 -1.9,2.5 -3,1.9 -1,0.1 -2.1,0.1 -3.3,1.4 -1.1,-0.8 -2.3,2.3 -3.5,0.9 -1.2,0.2 -2.4,0.3 -3.7,0.3 -2.5,-2.8 -4.9,-1 -7.2,-1.2 -2.3,0.1 -4.4,-1.4 -6.3,-3.2 -1.9,-3.5 -3.6,-4.5 -4.9,-4.9 -0.7,0.4 -1.3,-0.9 -1.9,-2.4 -0.5,-2 -1,0.3 -1.4,-3.8 -0.4,-4.4 -0.7,1.3 -0.9,-3.3 -0.2,-0.9 -0.3,-1.8 -0.3,-3.9 0,0.2 0.1,0.4 0.3,-3.8 0.2,3.3 0.5,-2.1 0.9,-3.4 0.4,4 0.8,-7.3 1.4,-3.3 0.5,-0.4 1.2,-5.6 1.9,-3 0.7,2.6 1.5,-0.4 2.3,-2.7 0.8,-1.4 1.7,-3.2 2.7,-2.3 0.9,-3.4 1.9,1.4 3,-1.9 1,0.7 2.1,-0.6 3.3,-1.4 1.1,-0.6 2.3,-1.8 3.5,-1 1.2,2.5 2.4,3.8 3.7,-0.2 1.3,-2.4 2.5,-0.1 3.7,-0.3 1.2,2.6 2.4,-1.1 3.5,1.5 1.1,0.3 2.2,1.3 3.3,0.7 1,1 2,0.7 3,2.5 0.9,3.5 1.8,6.5 2.7,2.3 0.8,3.5 1.6,3.4 2.3,2.7 0.9,3.1 1.7,0.3 2.4,4 0.3,1.3 0.6,1.6 0.9,2.1 0.3,0.4 0.5,0.9 0.6,2.4 0.2,-1.1 0.3,2.6 0.4,3 0,-1 0.1,5.7 0.1,1.9 z"
   class="st0"
   id="XMLID_184_" />
			<g
   id="XMLID_181_">
				<path
   d="m 684.3,294.1 c -0.1,-0.4 -0.2,-4.1 -0.4,-3 -0.2,-1.5 -0.4,-2 -0.6,-2.4 -0.3,-0.4 -0.5,-0.8 -0.9,-2.1 -0.7,-3.7 -1.4,-0.9 -2.4,-4 -0.7,0.7 -1.5,0.8 -2.3,-2.7 -0.8,4.2 -1.7,1.3 -2.7,-2.3 -0.9,-1.8 -1.9,-1.6 -3,-2.5 -0.3,0.2 -0.7,0.2 -1,0.2 0.2,0.4 0.4,0.9 0.6,2.3 0.2,-1.1 0.3,2.6 0.4,3 0.1,-0.6 0.1,1.5 0.1,2.6 0,-0.5 0,-0.8 0,-0.6 0,1.6 0,1.4 0,0.6 0,1.2 -0.1,3.8 -0.3,3.6 -0.2,-0.2 -0.5,2.5 -0.9,3 -0.4,-4.8 -0.8,4.1 -1.4,2.5 -0.5,1.9 -1.2,5.8 -1.9,3.8 -0.7,1 -1.5,-0.2 -2.3,2.5 -0.8,0.2 -1.7,3.6 -2.7,2.4 -0.9,-2 -1.9,2.5 -3,1.9 -1,0.1 -2.1,0.1 -3.3,1.4 -1.1,-0.8 -2.3,2.3 -3.5,0.9 -1.2,0.2 -2.4,0.3 -3.7,0.3 -2.5,-2.8 -4.9,-1 -7.2,-1.2 -0.7,0 -1.4,-0.1 -2.1,-0.4 0.4,3.4 0.8,1.4 1.3,3.3 0.5,1.5 1.2,2.8 1.9,2.4 1.4,0.4 3,1.4 4.9,4.9 1.9,1.9 4,3.3 6.3,3.2 2.3,0.2 4.7,-1.7 7.2,1.2 1.3,0 2.5,-0.1 3.7,-0.3 1.2,1.4 2.4,-1.7 3.5,-0.9 1.1,-1.3 2.2,-1.3 3.3,-1.4 1,0.7 2,-3.9 3,-1.9 0.9,1.1 1.8,-2.2 2.7,-2.4 0.8,-2.7 1.6,-1.4 2.3,-2.5 0.7,2 1.3,-1.9 1.9,-3.8 0.5,1.6 1,-7.3 1.4,-2.5 0.4,-0.5 0.7,-3.2 0.9,-3 0.1,0.2 0.2,-2.3 0.3,-3.6 0,-1 0,-3.1 -0.1,-2.5 z"
   class="st9"
   id="XMLID_183_" />
				<path
   d="m 684.5,296 c 0,-0.1 0,0.2 0,0.6 0,0.8 0,1 0,-0.6 z"
   class="st9"
   id="XMLID_182_" />
			</g>
			<path
   d="m 684.5,296 c 0,-0.4 -0.1,4.5 -0.3,4.2 -0.2,-0.2 -0.5,2.5 -0.9,3 -0.4,-4.8 -0.8,4.1 -1.4,2.5 -0.5,1.9 -1.2,5.8 -1.9,3.8 -0.7,1 -1.5,-0.2 -2.3,2.5 -0.8,0.2 -1.7,3.6 -2.7,2.4 -0.9,-2 -1.9,2.5 -3,1.9 -1,0.1 -2.1,0.1 -3.3,1.4 -1.1,-0.8 -2.3,2.3 -3.5,0.9 -1.2,0.2 -2.4,0.3 -3.7,0.3 -2.5,-2.8 -4.9,-1 -7.2,-1.2 -2.3,0.1 -4.4,-1.4 -6.3,-3.2 -1.9,-3.5 -3.6,-4.5 -4.9,-4.9 -0.7,0.4 -1.3,-0.9 -1.9,-2.4 -0.5,-2 -1,0.3 -1.4,-3.8 -0.4,-4.4 -0.7,1.3 -0.9,-3.3 -0.2,-0.9 -0.3,-1.8 -0.3,-3.9 0,0.2 0.1,0.4 0.3,-3.8 0.2,3.3 0.5,-2.1 0.9,-3.4 0.4,4 0.8,-7.3 1.4,-3.3 0.5,-0.4 1.2,-5.6 1.9,-3 0.7,2.6 1.5,-0.4 2.3,-2.7 0.8,-1.4 1.7,-3.2 2.7,-2.3 0.9,-3.4 1.9,1.4 3,-1.9 1,0.7 2.1,-0.6 3.3,-1.4 1.1,-0.6 2.3,-1.8 3.5,-1 1.2,2.5 2.4,3.8 3.7,-0.2 1.3,-2.4 2.5,-0.1 3.7,-0.3 1.2,2.6 2.4,-1.1 3.5,1.5 1.1,0.3 2.2,1.3 3.3,0.7 1,1 2,0.7 3,2.5 0.9,3.5 1.8,6.5 2.7,2.3 0.8,3.5 1.6,3.4 2.3,2.7 0.9,3.1 1.7,0.3 2.4,4 0.3,1.3 0.6,1.6 0.9,2.1 0.3,0.4 0.5,0.9 0.6,2.4 0.2,-1.1 0.3,2.6 0.4,3 0,-1 0.1,5.7 0.1,1.9 z"
   class="st2"
   id="XMLID_180_" />
			<path
   d="m 348.8,695.4 c 6.2,10.7 13.3,20.7 21.2,30 39.4,13.1 86.4,20.6 136.7,20.6 49.7,0 96.1,-7.4 135.2,-20.1 7.9,-9.2 15,-19.2 21.2,-29.8 -43.3,19 -98.2,29.4 -156.4,29.4 -58.9,0 -114.4,-10.6 -157.9,-30.1 z"
   class="st10"
   id="XMLID_171_" />
			<path
   d="m 348.8,695.4 c 6.2,10.7 13.3,20.7 21.2,30 39.4,13.1 86.4,20.6 136.7,20.6 49.7,0 96.1,-7.4 135.2,-20.1 7.9,-9.2 15,-19.2 21.2,-29.8 -43.3,19 -98.2,29.4 -156.4,29.4 -58.9,0 -114.4,-10.6 -157.9,-30.1 z"
   class="st2"
   id="XMLID_170_" />
			<rect
   height="44.299999"
   width="47.799999"
   class="st11"
   y="712.90002"
   x="484.10001"
   id="XMLID_169_" />
			<path
   d="M 517.3,712.9 V 730 c 0,8.3 -6.7,15 -15,15 h -18.2 v 12.2 h 47.8 v -44.3 z"
   class="st12"
   id="XMLID_168_" />
			<rect
   height="44.299999"
   width="47.799999"
   class="st2"
   y="712.90002"
   x="484.10001"
   id="XMLID_167_" />
			<ellipse
   ry="8.1999998"
   rx="7.5999999"
   cy="672.40002"
   cx="507.10001"
   id="XMLID_166_" />
			<ellipse
   ry="8.1999998"
   rx="7.5999999"
   cy="672.40002"
   cx="507.10001"
   class="st10"
   id="XMLID_165_" />
			<ellipse
   ry="8.1999998"
   rx="7.5999999"
   cy="672.40002"
   cx="507.10001"
   class="st2"
   id="XMLID_164_" />
			<g
   id="XMLID_133_">
				<path
   d="m 348,689.1 c -12.9,-27.2 -20.2,-58.1 -20.2,-90.9 0,-81.4 44.9,-151.2 109,-181 -31.1,10.4 -59.5,27.8 -83.3,51.5 -40.1,39.9 -62.1,92.7 -62.1,148.8 0,35.7 9,70.1 25.8,100.7 10.2,-9.6 21.3,-20 30.8,-29.1 z"
   class="st2"
   id="XMLID_163_" />
				<path
   d="m 355.3,703 c -17.4,-30.3 -27.5,-66.2 -27.5,-104.8 0,-81.4 44.9,-151.2 109,-181 -31.1,10.4 -59.5,27.8 -83.3,51.5 -40.1,39.9 -62.1,92.7 -62.1,148.8 0,40.4 11.4,79.1 32.7,112.4 z"
   class="st5"
   id="XMLID_162_" />
				<path
   d="m 355.3,703 c -17.4,-30.3 -27.5,-66.2 -27.5,-104.8 0,-81.4 44.9,-151.2 109,-181 -31.1,10.4 -59.5,27.8 -83.3,51.5 -40.1,39.9 -62.1,92.7 -62.1,148.8 0,40.4 11.4,79.1 32.7,112.4 z"
   class="st5"
   id="XMLID_161_" />
				<g
   id="XMLID_141_">
					<path
   d="m 436.8,417.3 c -15,5 -29.5,11.7 -43,20 8.5,-4.3 17.3,-7.9 26.3,-11 5.4,-3.3 10.9,-6.3 16.7,-9 z"
   class="st6"
   id="XMLID_160_" />
					<path
   d="m 418.7,427.1 c -62.6,30.5 -106.2,99.5 -106.2,179.6 0,38.5 10.1,74.5 27.5,104.8 L 322.1,727 c 0.6,1 1.3,2.1 1.9,3.1 l 31.2,-27 c -17.4,-30.3 -27.5,-66.2 -27.5,-104.8 0.1,-73.5 36.8,-137.5 91,-171.2 z"
   class="st6"
   id="XMLID_142_" />
				</g>
				<path
   d="m 355.3,703 c -17.4,-30.3 -27.5,-66.2 -27.5,-104.8 0,-81.4 44.9,-151.2 109,-181 -31.1,10.4 -59.5,27.8 -83.3,51.5 -40.1,39.9 -62.1,92.7 -62.1,148.8 0,40.4 11.4,79.1 32.7,112.4 z"
   class="st2"
   id="XMLID_140_" />
				<path
   d="m 335.9,729.4 c 0,0 0.3,13 10.9,31.5 10.6,18.5 56.9,-2.9 52.9,-28.5 -3.9,-25.6 -48.5,-12.8 -48.4,-23.2 0.1,-10.4 -15.4,20.2 -15.4,20.2 z"
   class="st0"
   id="XMLID_139_" />
				<path
   d="m 335.9,729.4 c 0,0 0.3,13 10.9,31.5 10.6,18.5 56.9,-2.9 52.9,-28.5 -3.9,-25.6 -48.5,-12.8 -48.4,-23.2 0.1,-10.4 -15.4,20.2 -15.4,20.2 z"
   class="st7"
   id="XMLID_138_" />
				<path
   d="m 344.6,726.8 c -0.1,10.5 44.4,-2.4 48.4,23.2 0.1,0.7 0.2,1.4 0.2,2.1 4.9,-5.7 7.7,-12.5 6.6,-19.7 -3.9,-25.6 -48.5,-12.8 -48.4,-23.2 0.1,-10.5 -15.5,20.2 -15.5,20.2 0,0 0,1.5 0.5,4.3 4.1,-6.7 8.3,-12.4 8.2,-6.9 z"
   class="st8"
   id="XMLID_137_" />
				<path
   d="m 335.9,729.4 c 0,0 0.3,13 10.9,31.5 10.6,18.5 56.9,-2.9 52.9,-28.5 -3.9,-25.6 -48.5,-12.8 -48.4,-23.2 0.1,-10.4 -15.4,20.2 -15.4,20.2 z"
   class="st2"
   id="XMLID_136_" />
				<path
   d="m 363.9,692.9 c 0,-0.1 -0.1,-0.1 -0.1,-0.2 -2.4,-4.5 -7.2,-6.6 -11.7,-6 -2.3,0.3 -4.5,1.3 -6.3,3 0,0 -0.9,-0.3 -2.3,2.2 -1.5,3.7 -3.5,3.1 -5.8,5.4 -2.3,6.7 -4.9,-0.9 -7.6,7.1 -2.6,3.7 -5.2,6.6 -7.6,7.1 -2.3,1 -4.4,1.6 -5.8,5.4 -1.5,3.2 -2.3,3 -2.3,2.2 -1.4,1.3 -2.4,2.9 -3.1,4.7 -1.3,3.5 -1,7.5 1.1,10.8 0.6,1 1.2,1.9 1.8,2.9 1.4,2.1 3.3,3.7 5.4,4.5 2.1,0.9 4.4,1.1 6.7,0.6 2.2,-0.2 4.4,-6.6 6.1,-3.4 1.6,-4 3.3,0.2 5,-5.3 1.7,-1.5 3.4,0.7 5.1,-5.4 1.7,-4.7 3.4,-13.2 5.1,-5.4 1.7,-9 3.4,-3.4 5,-5.4 1.7,-0.5 3.3,-6.7 4.9,-5.3 1.6,-2.8 3.2,-3.4 4.7,-5.1 3.5,-3.9 4.2,-9.8 1.7,-14.4 z"
   class="st0"
   id="XMLID_135_" />
				<path
   d="m 363.9,692.9 c 0,0.1 -0.1,3.4 -0.1,-0.2 -1.2,-0.7 -3,-3.7 -5.1,-4.9 -2,-2 -4.4,-1.2 -6.6,-1.1 -2.3,0.9 -4.5,1 -6.3,3 0,-0.9 -0.9,-0.9 -2.3,2.2 -0.7,3.1 -1.6,1.8 -2.6,3 -1,1.7 -2.1,-1 -3.2,2.4 -0.6,-1.5 -1.2,-0.1 -1.8,1.8 -0.6,1.9 -1.2,4.9 -1.9,4.2 -0.6,1.7 -1.3,2.1 -1.9,2.4 -0.6,0.4 -1.3,0.6 -2,-1.3 -1.3,0.4 -2.6,0 -3.9,0.6 -1.3,0.6 -2.5,2.2 -3.7,6.5 -1.2,2.2 -2.3,3 -3.2,3.5 -1,0.5 -1.9,0.8 -2.6,1.9 -1.5,1.9 -2.3,3 -2.3,2.2 -0.7,0.3 -1.3,1.2 -1.8,2.5 -0.5,-0.9 -0.9,5.9 -1.3,2.2 -0.3,0.8 -0.5,3.9 -0.7,2.8 -0.1,1.2 -0.1,2.2 0,2.6 0.1,2.2 0.3,3.6 0.6,2.1 0.3,4.5 0.7,-2.6 1.2,3.2 0.3,0.4 0.6,0.2 0.9,0.1 0.3,2.4 0.6,1.6 0.9,2.8 0.7,-1.4 1.5,-6.2 2.4,0.3 0.5,2.5 0.9,1.4 1.4,0.7 0.5,1.8 1,1.8 1.5,3.5 1.1,0.9 2.2,0.7 3.3,0.3 1.1,-1.5 2.3,-1.4 3.4,0.3 1.1,1.2 2.2,-1.9 3.2,-1.4 1,-0.9 2,-3.3 2.9,-2 0.5,0.9 1.1,-3.1 1.6,-1.8 0.6,2.2 1.1,-2.5 1.7,-1.8 0.6,1.7 1.1,-0.7 1.7,-1.9 0.6,-0.2 1.1,-2.7 1.7,-1.7 0.6,2.2 1.1,-1 1.7,-0.9 0.6,-2 1.1,-2.5 1.7,-2.7 0.8,4.2 1.7,-1.9 2.5,-2.8 0.8,-1 1.7,-2.2 2.5,-2.6 0.4,1.9 0.8,1.1 1.3,-0.1 0.5,-1.2 0.8,-3.1 1.3,-3.2 0.8,-2.5 1.7,-3.6 2.5,-2 0.8,-3 1.7,0.2 2.5,-2.6 0.8,1.2 1.6,-1.3 2.4,-2.6 0.8,-0.3 1.6,-1.7 2.4,-2.2 0.8,-1 1.6,-2 2.3,-2.8 1.2,-1.9 2.1,-1.3 2.6,-4.4 0.5,-1.7 0.8,-1.4 0.6,-5 -0.1,-0.8 -0.2,-1.5 -0.5,-2.2 -0.2,-0.8 -0.5,-1.7 -0.9,-2.9 z"
   class="st2"
   id="XMLID_134_" />
			</g>
			<g
   id="XMLID_120_">
				<path
   d="m 664,689.1 c 12.9,-27.2 20.2,-58.1 20.2,-90.9 0,-81.4 -44.9,-151.2 -109,-181 31.1,10.4 59.5,27.8 83.3,51.5 40.1,39.9 62.1,92.7 62.1,148.8 0,35.7 -9,70.1 -25.8,100.7 -10.2,-9.6 -21.3,-20 -30.8,-29.1 z"
   class="st2"
   id="XMLID_132_" />
				<path
   d="m 656.7,703 c 17.4,-30.3 27.5,-66.2 27.5,-104.8 0,-81.4 -44.9,-151.2 -109,-181 31.1,10.4 59.5,27.8 83.3,51.5 40.1,39.9 62.1,92.7 62.1,148.8 0,40.4 -11.4,79.1 -32.7,112.4 z"
   class="st5"
   id="XMLID_131_" />
				<path
   d="m 700.2,609.2 c 0,-56.1 -22.1,-109 -62.1,-148.8 C 620.6,443 600.7,429 579,418.7 c -1.2,-0.4 -2.5,-0.9 -3.7,-1.3 64,29.8 109,99.6 109,181 0,38.5 -10.1,74.5 -27.5,104.8 l 14.4,12.5 c 18.9,-32.1 29,-68.6 29,-106.5 z"
   class="st6"
   id="XMLID_130_" />
				<path
   d="m 656.7,703 c 17.4,-30.3 27.5,-66.2 27.5,-104.8 0,-81.4 -44.9,-151.2 -109,-181 31.1,10.4 59.5,27.8 83.3,51.5 40.1,39.9 62.1,92.7 62.1,148.8 0,40.4 -11.4,79.1 -32.7,112.4 z"
   class="st2"
   id="XMLID_129_" />
				<path
   d="m 676.1,729.4 c 0,0 -0.3,13 -10.9,31.5 -10.6,18.5 -56.9,-2.9 -52.9,-28.5 4,-25.6 48.5,-12.8 48.4,-23.2 -0.2,-10.5 15.4,20.2 15.4,20.2 z"
   class="st7"
   id="XMLID_128_" />
				<path
   d="m 631.3,746.8 c 3.1,-20.5 32.4,-16.4 43.8,-19.3 -3.4,-6.5 -14.6,-27.2 -14.5,-18.4 0.1,10.5 -44.4,-2.4 -48.4,23.2 -2.1,13.9 10.5,26.5 24.2,32.2 -3.9,-5.2 -6.1,-11.3 -5.1,-17.7 z"
   class="st8"
   id="XMLID_127_" />
				<path
   d="m 676.1,729.4 c 0,0 -0.3,13 -10.9,31.5 -10.6,18.5 -56.9,-2.9 -52.9,-28.5 4,-25.6 48.5,-12.8 48.4,-23.2 -0.2,-10.5 15.4,20.2 15.4,20.2 z"
   class="st2"
   id="XMLID_126_" />
				<path
   d="m 648.1,692.9 c 0,-0.1 0.1,-0.1 0.1,-0.2 3.7,-6.7 12.4,-8.2 18,-3 l 31.4,29.4 c 4.2,4 5.1,10.5 2,15.5 -0.6,1 -1.2,1.9 -1.8,2.9 -4.1,6.4 -12.9,7.2 -18.1,1.7 -9.9,-10.5 -20.5,-21.9 -29.8,-31.9 -3.6,-3.9 -4.3,-9.8 -1.8,-14.4 z"
   class="st0"
   id="XMLID_122_" />
				<path
   d="m 648.1,692.9 c 0,-2.5 0.1,-2.3 0.1,-0.2 0.6,2.1 1.4,-1.9 2.2,-2.9 0.9,1.7 1.8,1 2.8,-2 1,0 2.1,-0.5 3.2,-1 1.1,-1.8 2.3,-1.3 3.4,-0.1 1.1,0.9 2.2,0.4 3.3,0.7 1.1,0.5 2.1,1.2 3,2.3 0,-1.2 0.9,-2.8 2.3,2.2 1.5,1.9 3.5,2.2 5.8,5.4 2.3,-3.6 4.9,9.2 7.6,7.1 0.7,0.3 1.3,0.8 2,1.4 0.7,0.6 1.3,1.3 1.9,2 0.6,1.3 1.3,0.6 1.9,2 0.6,-0.2 1.2,1.2 1.8,1.6 0.6,-1 1.1,-0.6 1.7,0.1 0.5,0.7 1.1,1.6 1.5,1.7 1,3.6 1.9,3.3 2.6,3.7 1.5,3.4 2.3,5.1 2.3,2.2 0.7,-0.7 1.3,3.5 1.8,2.2 0.5,4.4 0.9,1.3 1.3,2.5 0.6,2.9 0.9,3.6 0.7,5.5 -0.2,0.5 -0.8,1.6 -1.8,5.3 -0.6,0.3 -1.2,2.1 -1.8,2.9 -1.4,2.1 -3.3,3.7 -5.4,4.5 -2.8,1.2 -6,1.1 -8.8,-0.1 -1.4,-0.6 -2.7,-1.4 -3.9,-2.8 -1.6,-3.7 -3.3,-4.9 -5,-5.3 -1.7,-5.5 -3.4,-0.5 -5.1,-5.4 -1.7,-6.4 -3.4,-7.2 -5.1,-5.4 -1.7,0.6 -3.4,-4 -5,-5.4 -0.8,1.2 -1.7,-0.1 -2.5,-1.7 -0.8,-0.2 -1.6,-2.6 -2.4,-3.6 -0.8,-1.2 -1.6,-2 -2.4,-2.8 -0.8,-0.3 -1.6,2.7 -2.3,-2.3 -1.2,3.6 -2.1,-5.9 -2.6,-4.4 -0.5,-6.6 -0.8,-2.3 -0.6,-5 0.2,0.8 0.7,-4.4 1.5,-4.9 z"
   class="st2"
   id="XMLID_121_" />
			</g>
			<g
   id="XMLID_114_">
				<path
   d="m 383,543.1 c 40.7,44.8 94.4,63.5 122,101.9 27.6,-38.4 81.4,-57.1 122,-101.9 28.2,-29.9 13.9,-89.6 -17.3,-113.9 C 577.5,404.6 540,388.9 504.9,388.9 v 0 c -35.1,0 -72.6,15.8 -104.5,40.3 -31.2,24.3 -45.6,84 -17.4,113.9 z"
   class="st0"
   id="XMLID_118_" />
				<g
   id="XMLID_189_">
					<circle
   r="22.5"
   cy="435.60001"
   cx="509.10001"
   class="st13"
   id="XMLID_115_" />
					<path
   d="m 589.1,408.4 c -24.1,-8.9 -42.2,-23.2 -66.6,-14.2 -10.8,4 -21.7,33.6 15.2,47 23.4,8.5 43.4,5.5 60.5,-4.1 -13.1,-9.8 -19.3,-18.5 -9.1,-28.7 z"
   class="st13"
   id="XMLID_216_" />
					<path
   d="m 501.8,394.2 c -29.8,-11 -50.1,12.6 -83.3,18.9 -1.9,5.1 -7.9,1.8 -9.8,6.3 15.3,19.7 48.1,32.7 77.9,21.8 36.9,-13.4 26,-43 15.2,-47 z"
   class="st13"
   id="XMLID_215_" />
				</g>
				<path
   d="M 609.8,429.1 C 577.6,404.5 540.1,388.8 505,388.8 v 0 c -4.9,0 -9.9,0.3 -15,0.9 30.6,3.7 62.2,18.3 89.8,39.4 31.2,24.3 45.5,84 17.3,113.9 -34.2,37.7 -86.9,65.4 -96.5,95.8 5.5,5.3 0,0 4.4,6.1 27.6,-38.4 81.4,-57.1 122,-101.9 28.4,-29.8 14,-89.5 -17.2,-113.9 z"
   class="st9"
   id="XMLID_117_" />
				<path
   d="m 383,543.1 c 40.7,44.8 94.4,63.5 122,101.9 27.6,-38.4 81.4,-57.1 122,-101.9 28.2,-29.9 13.9,-89.6 -17.3,-113.9 C 577.5,404.6 540,388.9 504.9,388.9 v 0 c -35.1,0 -72.6,15.8 -104.5,40.3 -31.2,24.3 -45.6,84 -17.4,113.9 z"
   class="st2"
   id="XMLID_116_" />
			</g>
			<circle
   r="22.5"
   cy="423.60001"
   cx="506.10001"
   id="XMLID_111_" />
			<circle
   r="22.5"
   cy="423.60001"
   cx="506.10001"
   class="st2"
   id="XMLID_110_" />
			<path
   d="m 516.4,384.2 c -10.8,4 -21.7,33.6 15.2,47 36.9,13.4 65.4,-1.8 87.4,-26.7 -45.4,2 -67.4,-33.2 -102.6,-20.3 z"
   class="st0"
   id="XMLID_109_" />
			<path
   d="m 594.2,401.9 c -0.2,0.2 -0.4,0.4 -0.7,0.6 -10.9,-4 -21.5,-4.6 -43.7,-17.2 11.4,9.9 25.5,20.4 33.9,24.5 1.5,0.7 1.7,2.8 0.4,3.9 -15.9,13.1 -41.5,13.2 -65.1,4.6 -4.1,-1.5 -7.6,-3.2 -10.5,-5 3.3,6.8 10.4,13.3 23.1,18 36.9,13.5 65.4,-1.8 87.4,-26.7 -9.1,0.3 -17.2,-0.8 -24.8,-2.7 z"
   class="st9"
   id="XMLID_108_" />
			<path
   d="m 516.4,384.2 c -10.8,4 -21.7,33.6 15.2,47 36.9,13.4 65.4,-1.8 87.4,-26.7 -45.4,2 -67.4,-33.2 -102.6,-20.3 z"
   class="st2"
   id="XMLID_107_" />
			<path
   d="m 495.8,384.2 c 10.8,4 21.7,33.6 -15.2,47 -36.9,13.4 -65.4,-1.8 -87.4,-26.7 45.4,2 67.5,-33.2 102.6,-20.3 z"
   class="st0"
   id="XMLID_106_" />
			<path
   d="m 495.8,384.2 c -11.5,-4.2 -21.6,-3.3 -31.6,-0.3 5.4,-0.1 11,0.5 17,2.4 10.5,3.2 21.4,26.1 -14.2,36 -23.7,6.6 -43.9,3.4 -61.2,-5.2 20,17 44.5,25.1 74.6,14.1 37.1,-13.4 26.2,-43 15.4,-47 z"
   class="st9"
   id="XMLID_105_" />
			<path
   d="m 495.8,384.2 c 10.8,4 21.7,33.6 -15.2,47 -36.9,13.4 -65.4,-1.8 -87.4,-26.7 45.4,2 67.5,-33.2 102.6,-20.3 z"
   class="st2"
   id="XMLID_104_" />
			<path
   d="m 502.2,354.9 c 0,0 -23.3,31.7 2.8,38.3 5.6,1.4 16.5,-5.6 15.7,-13.5"
   class="st7"
   id="XMLID_101_" />
			<path
   d="m 502.2,354.9 c 0,0 -23.3,31.7 2.8,38.3 5.6,1.4 16.5,-5.6 15.7,-13.5"
   class="st2"
   id="XMLID_99_" />
			<path
   d="M 466.2,567.8"
   class="st2"
   id="XMLID_96_" />
			<path
   d="M 449.7,543.1"
   class="st2"
   id="XMLID_95_" />
			<g
   id="XMLID_98_">
				<path
   d="m 528.1,338 c 0,0 15.3,-4.5 28.1,0"
   class="st14"
   id="XMLID_97_" />
				<ellipse
   ry="13.5"
   rx="13.1"
   cy="357.89999"
   cx="535.29999"
   class="st0"
   id="XMLID_245_" />
				<ellipse
   ry="5.5"
   rx="5.4000001"
   cy="362.20001"
   cx="534"
   id="XMLID_246_" />
				<ellipse
   ry="13.5"
   rx="13.1"
   cy="357.89999"
   cx="535.29999"
   class="st14"
   id="XMLID_190_" />
			</g>
			<g
   id="XMLID_248_">
				<path
   d="m 482,338 c 0,0 -15.3,-4.5 -28.1,0"
   class="st14"
   id="XMLID_253_" />
				<ellipse
   ry="13.5"
   rx="13.1"
   cy="357.89999"
   cx="474.89999"
   class="st0"
   id="XMLID_252_" />
				<ellipse
   ry="5.5"
   rx="5.4000001"
   cy="362.20001"
   cx="476.20001"
   id="XMLID_251_" />
				<ellipse
   ry="13.5"
   rx="13.1"
   cy="357.89999"
   cx="474.89999"
   class="st14"
   id="XMLID_249_" />
			</g>
		</g>
		<path
   d="m 750.3,605.9 c -38.3,95 -131.3,162 -239.9,162 -127.3,0 -233.2,-92 -254.6,-213.2"
   class="st2"
   id="XMLID_175_" />
	</g>
	<defs
   id="defs312">
		<filter
   height="369.29999"
   width="157.39999"
   y="411.29999"
   x="569.20001"
   filterUnits="userSpaceOnUse"
   id="Adobe_OpacityMaskFilter_1_">
			<feColorMatrix
   id="feColorMatrix309"
   values="1 0 0 0 0  0 1 0 0 0  0 0 1 0 0  0 0 0 1 0"
   type="matrix" />
		</filter>
	</defs>
	<mask
   id="XMLID_3_"
   height="369.3"
   width="157.4"
   y="411.3"
   x="569.2"
   maskUnits="userSpaceOnUse">
		<g
   class="st15"
   id="XMLID_242_">
			<path
   d="m 697,455.5 -59.3,111 c 0,0 -68,139.4 -68,163.1 0,23.7 0.5,51.6 16.8,59.8 16.3,8.2 122.8,12.3 125.6,9.6 2.8,-2.7 41.7,-46.6 49.2,-78.3 7.5,-31.7 19.8,-89.5 15,-114.9 -4.8,-25.4 -4.1,-49.3 -14.3,-73.9 -10.3,-24.5 -65,-76.4 -65,-76.4 z"
   class="st0"
   id="XMLID_241_" />
		</g>
	</mask>
	<g
   mask="url(#XMLID_3_)"
   class="st16"
   id="XMLID_179_">
		<path
   d="m 664,689.1 c 12.9,-27.2 20.2,-58.1 20.2,-90.9 0,-81.4 -44.9,-151.2 -109,-181 31.1,10.4 59.5,27.8 83.3,51.5 40.1,39.9 62.1,92.7 62.1,148.8 0,35.7 -9,70.1 -25.8,100.7 -10.2,-9.6 -21.3,-20 -30.8,-29.1 z"
   class="st2"
   id="XMLID_240_" />
		<path
   d="m 656.7,703 c 17.4,-30.3 27.5,-66.2 27.5,-104.8 0,-81.4 -44.9,-151.2 -109,-181 31.1,10.4 59.5,27.8 83.3,51.5 40.1,39.9 62.1,92.7 62.1,148.8 0,40.4 -11.4,79.1 -32.7,112.4 z"
   class="st5"
   id="XMLID_214_" />
		<path
   d="m 700.2,609.2 c 0,-56.1 -22.1,-109 -62.1,-148.8 C 620.6,443 600.7,429 579,418.7 c -1.2,-0.4 -2.5,-0.9 -3.7,-1.3 64,29.8 109,99.6 109,181 0,38.5 -10.1,74.5 -27.5,104.8 l 14.4,12.5 c 18.9,-32.1 29,-68.6 29,-106.5 z"
   class="st6"
   id="XMLID_213_" />
		<path
   d="m 656.7,703 c 17.4,-30.3 27.5,-66.2 27.5,-104.8 0,-81.4 -44.9,-151.2 -109,-181 31.1,10.4 59.5,27.8 83.3,51.5 40.1,39.9 62.1,92.7 62.1,148.8 0,40.4 -11.4,79.1 -32.7,112.4 z"
   class="st2"
   id="XMLID_212_" />
		<path
   d="m 676.1,729.4 c 0,0 3.3,24.3 -10.9,38.5 -15.1,15.1 -56.9,-9.8 -52.9,-35.5 4,-25.7 48.5,-12.8 48.4,-23.2 -0.2,-10.5 15.4,20.2 15.4,20.2 z"
   class="st7"
   id="XMLID_211_" />
		<path
   d="m 631.3,746.8 c 3.1,-20.5 32.4,-16.4 43.8,-19.3 -3.4,-6.5 -14.6,-27.2 -14.5,-18.4 0.1,10.5 -44.4,-2.4 -48.4,23.2 -2.1,13.9 10.5,26.5 24.2,32.2 -3.9,-5.2 -6.1,-11.3 -5.1,-17.7 z"
   class="st8"
   id="XMLID_210_" />
		<path
   d="m 676.1,729.4 c 0,0 5,18.3 -5.6,36.8 -10.6,18.5 -65.1,6.2 -58.2,-33.8 4.4,-25.5 48.5,-12.8 48.4,-23.2 -0.2,-10.5 15.4,20.2 15.4,20.2 z"
   class="st2"
   id="XMLID_209_" />
		<path
   d="m 648.1,692.9 c 0,-0.1 0.1,-0.1 0.1,-0.2 3.7,-6.7 12.4,-8.2 18,-3 l 31.4,29.4 c 4.2,4 5.1,10.5 2,15.5 -0.6,1 -1.2,1.9 -1.8,2.9 -4.1,6.4 -12.9,7.2 -18.1,1.7 -9.9,-10.5 -20.5,-21.9 -29.8,-31.9 -3.6,-3.9 -4.3,-9.8 -1.8,-14.4 z"
   class="st0"
   id="XMLID_208_" />
		<path
   d="m 648.1,692.9 c 0,-2.5 0.1,-2.3 0.1,-0.2 0.6,2.1 1.4,-1.9 2.2,-2.9 0.9,1.7 1.8,1 2.8,-2 1,0 2.1,-0.5 3.2,-1 1.1,-1.8 2.3,-1.3 3.4,-0.1 1.1,0.9 2.2,0.4 3.3,0.7 1.1,0.5 2.1,1.2 3,2.3 0,-1.2 0.9,-2.8 2.3,2.2 1.5,1.9 3.5,2.2 5.8,5.4 2.3,-3.6 4.9,9.2 7.6,7.1 0.7,0.3 1.3,0.8 2,1.4 0.7,0.6 1.3,1.3 1.9,2 0.6,1.3 1.3,0.6 1.9,2 0.6,-0.2 1.2,1.2 1.8,1.6 0.6,-1 1.1,-0.6 1.7,0.1 0.5,0.7 1.1,1.6 1.5,1.7 1,3.6 1.9,3.3 2.6,3.7 1.5,3.4 2.3,5.1 2.3,2.2 0.7,-0.7 1.3,3.5 1.8,2.2 0.5,4.4 0.9,1.3 1.3,2.5 0.6,2.9 0.9,3.6 0.7,5.5 -0.2,0.5 -0.8,1.6 -1.8,5.3 -0.6,0.3 -1.2,2.1 -1.8,2.9 -1.4,2.1 -3.3,3.7 -5.4,4.5 -2.8,1.2 -6,1.1 -8.8,-0.1 -1.4,-0.6 -2.7,-1.4 -3.9,-2.8 -1.6,-3.7 -3.3,-4.9 -5,-5.3 -1.7,-5.5 -3.4,-0.5 -5.1,-5.4 -1.7,-6.4 -3.4,-7.2 -5.1,-5.4 -1.7,0.6 -3.4,-4 -5,-5.4 -0.8,1.2 -1.7,-0.1 -2.5,-1.7 -0.8,-0.2 -1.6,-2.6 -2.4,-3.6 -0.8,-1.2 -1.6,-2 -2.4,-2.8 -0.8,-0.3 -1.6,2.7 -2.3,-2.3 -1.2,3.6 -2.1,-5.9 -2.6,-4.4 -0.5,-6.6 -0.8,-2.3 -0.6,-5 0.2,0.8 0.7,-4.4 1.5,-4.9 z"
   class="st2"
   id="XMLID_207_" />
	</g>
</g>
<path
   d="m 361.60002,268.20001 c 0,0 -1.6,-24.9 -30.1,-23.8 -7.4,0.3 21,-9.1 21,-9.1 z"
   class="st9"
   id="XMLID_112_" />
<path
   d="m 154.30002,284.60001 c 0,0 -10.1,38.4 42.7,68.1 35.4,20 47.4,35.2 47.4,35.2"
   class="st14"
   id="XMLID_93_" />
</svg>
